<?xml version="1.0" encoding="UTF-8"?>
<svg xmlns="http://www.w3.org/2000/svg" xmlns:xlink="http://www.w3.org/1999/xlink" width="30px" height="30px" viewBox="0 0 30 30" version="1.1">
<g id="surface1">
<path style="fill-rule:nonzero;fill:rgb(100%,100%,100%);fill-opacity:1;stroke-width:1;stroke-linecap:butt;stroke-linejoin:miter;stroke:rgb(100%,100%,100%);stroke-opacity:1;stroke-miterlimit:4;" d="M 221.961469 374.133484 C 253.176344 346.277172 335.016609 302.66525 320.199422 193.956484 C 316.593906 155.728141 308.592625 134.984078 301.08525 108.362531 C 287.206484 59.367031 216.973016 -27.461687 137.799844 8.494688 C 58.577281 44.401672 22.176391 240.581234 102.337375 255.892328 C 113.055141 257.472828 137.157766 217.515813 139.824859 204.476688 C 142.541344 191.388172 156.024984 201.414469 169.064109 174.200234 C 182.152625 146.986 170.348266 123.772406 179.090406 105.991781 C 187.783156 88.260547 191.536844 74.974469 217.615094 78.777547 C 235.049984 83.123922 230.259094 106.732641 233.815219 119.771766 C 237.371344 132.860281 265.079484 147.529297 264.388016 157.160469 C 263.696547 166.692859 252.08975 164.124547 252.336703 174.496578 C 252.336703 178.694781 258.312969 181.707609 258.510531 186.646672 C 258.708094 191.536344 251.941578 195.290031 251.941578 195.290031 C 251.941578 195.290031 257.967234 199.093109 256.337344 204.575469 C 254.756844 210.107219 247.298859 209.662703 244.434203 211.193813 C 243.100656 211.934672 255.151969 230.604328 246.903734 240.729406 C 236.828047 252.583156 186.499 240.136719 176.818438 243.890406 C 158.593297 250.953266 143.529156 275.549797 153.555453 287.156594 C 163.58175 298.763391 207.292453 299.948766 207.243063 367.46575 C 207.243063 381.591469 213.021766 382.134766 221.961469 374.133484 " transform="matrix(0.0790889,0,0,0.0790889,0,0.0000395444)"/>
</g>
</svg>
